Coordinates
version=1
nRows=21
nColumns=33
inDegrees=yes

Units are S.I. units (second, meters, Newtons, ...)
Angles are in degrees.

endheader
time	ground_thorax_rot_x	ground_thorax_rot_y	ground_thorax_rot_z	ground_thorax_tx	ground_thorax_ty	ground_thorax_tz	clav_prot_r	clav_elev_r	scapula_abduction_r	scapula_elevation_r	scapula_upward_rot_r	scapula_winging_r	shoulder_elv_r	plane_of_elev_r	axial_rot_r	elbow_flexion_r	pro_sup_r	wrist_flex_r	wrist_dev_r	clav_prot_l	clav_elev_l	scapula_abduction_l	scapula_elevation_l	scapula_upward_rot_l	scapula_winging_l	shoulder_elv_l	plane_of_elev_l	axial_rot_l	elbow_flexion_l	pro_sup_l	wrist_flex_l	wrist_dev_l
      3.39000000	     29.88794676	     24.41308908	     36.47726064	    -32.14232022	    856.40118343	    -48.67586963	     -0.14589962	     39.94094361	     40.91378943	     45.00000000	     17.27748296	   1675.44464457	   -461.98211867	    142.60853728	   -179.99999979	   1784.76109523	     60.63747892	     25.41941476	     16.38070416	     -7.42967362	    -45.00000000	    -40.47880675	     45.00000000	    -45.00000000	   5504.83371209	  -3326.30734518	    132.88258566	   -119.94168040	   1429.68824093	     40.74165704	     13.92193532	    -21.85131445
      3.40000000	     29.85817584	     24.44804670	     36.58340111	    -29.96907704	    855.77076598	    -48.57322930	     -0.37949988	     39.88346942	     41.06011441	     45.00000000	     17.80550097	   1675.29423268	   -462.08547818	    142.56662803	   -179.99999979	   1784.71701654	     60.49167013	     25.44011040	     16.57974635	     -7.34960262	    -45.00000000	    -40.42707499	     45.00000000	    -45.00000000	   5504.70633658	  -3326.24387853	    132.76633498	   -119.53495702	   1429.64596425	     40.56919686	     14.03472312	    -21.70106286
      3.41000000	     29.82177638	     24.56568894	     36.73193627	    -27.76703015	    855.11004149	    -48.46669602	     -0.46869833	     39.90505638	     41.18069226	     45.00000000	     18.14366545	   1675.18808274	   -462.16543722	    142.52557783	   -179.99999979	   1784.71506469	     60.35456640	     25.36793756	     16.68888563	     -7.43186067	    -45.00000000	    -40.42205551	     45.00000000	    -45.00000000	   5504.53910540	  -3326.23198432	    132.71034518	   -119.02972437	   1429.66789219	     40.38052491	     14.12678748	    -21.54496594
      3.42000000	     29.80435690	     24.61511702	     36.84269594	    -25.53989775	    854.41259250	    -48.35813370	     -0.60340135	     39.85764103	     41.34766265	     45.00000000	     18.55486430	   1674.99615298	   -462.30416456	    142.46500051	   -179.99999979	   1784.75575882	     60.22366541	     25.37613595	     16.84200192	     -7.44263852	    -45.00000000	    -40.35580416	     45.00000000	    -45.00000000	   5504.38199596	  -3326.13842040	    132.59094763	   -118.58501563	   1429.56227945	     40.22264294	     14.25301917	    -21.35265675
      3.43000000	     29.75513285	     24.75189645	     36.97959313	    -23.28930121	    853.67266003	    -48.24945048	     -0.70446799	     39.88412253	     41.50431537	     45.00000000	     18.76955818	   1674.86169850	   -462.38640769	    142.44983227	   -179.99999979	   1784.76028351	     60.12499977	     25.30298083	     16.94136126	     -7.48657729	    -45.00000000	    -40.36188793	     45.00000000	    -45.00000000	   5504.21122173	  -3326.12110665	    132.50900542	   -118.10739890	   1429.59453138	     40.03644414	     14.34528550	    -21.18006611
      3.44000000	     29.73558722	     24.88357563	     37.08080251	    -21.01594040	    852.88503280	    -48.14237976	     -0.51905380	     39.91420263	     41.72594803	     45.00000000	     18.94333226	   1674.58393198	   -462.50471832	    142.31730647	   -179.99999979	   1784.76644069	     60.03706654	     25.11849306	     16.96801298	     -7.87490861	    -45.00000000	    -40.30501142	     45.00000000	    -45.00000000	   5503.93172383	  -3326.05734306	    132.45457416	   -117.43924577	   1429.55330301	     39.85282625	     14.44169311	    -20.96714479
      3.45000000	     29.72283393	     24.91063330	     37.24354112	    -18.72124430	    852.04573871	    -48.03761517	     -0.80864103	     39.86889950	     41.85316079	     45.00000000	     19.26903357	   1674.48466866	   -462.71152079	    142.29894407	   -179.99999979	   1784.79916907	     59.97055987	     25.16582204	     17.14320709	     -7.66585892	    -45.00000000	    -40.24224275	     45.00000000	    -45.00000000	   5503.86281382	  -3326.03664193	    132.35596524	   -117.11192900	   1429.48582810	     39.69679950	     14.55813859	    -20.75957477
      3.46000000	     29.69145161	     25.06693089	     37.40543257	    -16.40524505	    851.15066633	    -47.93490455	     -0.95507580	     39.88661773	     41.95637430	     45.00000000	     19.46809045	   1674.37829004	   -462.82446540	    142.25845878	   -179.99999979	   1784.83042240	     59.90605139	     25.06963741	     17.22418828	     -7.71456111	    -45.00000000	    -40.22565194	     45.00000000	    -45.00000000	   5503.69563662	  -3326.06499932	    132.28315765	   -116.62121490	   1429.44186246	     39.53518576	     14.65348932	    -20.53807771
      3.47000000	     29.67163043	     25.17377578	     37.53680196	    -14.06695363	    850.19682695	    -47.83296918	     -0.99792445	     39.88365089	     42.10793762	     45.00000000	     19.62705395	   1674.18889702	   -463.00660413	    142.18676709	   -179.99999979	   1784.88598187	     59.85669189	     25.00998546	     17.31658094	     -7.81051753	    -45.00000000	    -40.13881953	     45.00000000	    -45.00000000	   5503.51415291	  -3326.01293067	    132.19501994	   -116.14057160	   1429.37304620	     39.37795567	     14.74757396	    -20.29779721
      3.48000000	     29.60975139	     25.29997737	     37.66938799	    -11.70965986	    849.18423057	    -47.73049547	     -1.10219331	     39.89991745	     42.28221707	     45.00000000	     19.71563951	   1674.00006250	   -463.17423519	    142.17830881	   -179.99999979	   1784.96621009	     59.81472858	     24.94715692	     17.39100505	     -7.85162339	    -45.00000000	    -40.10353466	     45.00000000	    -45.00000000	   5503.33705786	  -3325.97619715	    132.10435445	   -115.72013733	   1429.35121672	     39.22289203	     14.82498086	    -20.06435151
      3.49000000	     29.59022036	     25.43707817	     37.84809736	     -9.33286993	    848.11272668	    -47.62571849	     -1.12523538	     39.92040133	     42.40779095	     45.00000000	     19.78499747	   1673.84126124	   -463.38572442	    142.09071552	   -179.99999979	   1785.01416110	     59.79208913	     24.83289850	     17.44973044	     -8.01106197	    -45.00000000	    -40.04492730	     45.00000000	    -45.00000000	   5503.14805791	  -3325.98039970	    132.07262624	   -115.25353016	   1429.25309044	     39.09903103	     14.90464554	    -19.80653462
      3.50000000	     29.55125532	     25.60376780	     38.01682571	     -6.94513707	    846.98704490	    -47.51731079	     -0.91070521	     40.02129856	     42.65852887	     45.00000000	     19.69792569	   1673.60018453	   -463.54671805	    142.04215685	   -179.99999979	   1785.06483259	     59.78149853	     24.56408669	     17.38867060	     -8.47006885	    -45.00000000	    -39.97008043	     45.00000000	    -45.00000000	   5502.89031697	  -3325.93821813	    132.06250009	   -114.61793764	   1429.17046362	     38.96647101	     14.95906870	    -19.52059547
      3.51000000	     29.53853691	     25.66056965	     38.17085802	     -4.54720841	    845.80929398	    -47.40326308	     -1.15436891	     39.99673646	     42.75871147	     45.00000000	     19.85482953	   1673.43551168	   -463.83820027	    141.98907791	   -179.99999979	   1785.09108259	     59.77330691	     24.52332549	     17.50615688	     -8.37801465	    -45.00000000	    -39.89443081	     45.00000000	    -45.00000000	   5502.77222297	  -3325.97621476	    131.99149171	   -114.33644514	   1429.09996078	     38.88167599	     15.03688919	    -19.29005098
      3.52000000	     29.49845391	     25.86201490	     38.36225885	     -2.13969572	    844.58056741	    -47.28134701	     -1.13510739	     40.07297114	     42.87847165	     45.00000000	     19.69237042	   1673.29759057	   -464.03652427	    141.93188449	   -179.99999979	   1785.16828930	     59.75420916	     24.38489652	     17.53578991	     -8.54647351	    -45.00000000	    -39.81202437	     45.00000000	    -45.00000000	   5502.58045678	  -3326.00495974	    131.93759863	   -113.92312898	   1429.09254697	     38.80601179	     15.07610833	    -19.05435663
      3.53000000	     29.46817623	     25.99304279	     38.52485452	      0.27361873	    843.30431458	    -47.14798459	     -1.14448021	     40.12162788	     43.00856545	     45.00000000	     19.65314017	   1673.09651046	   -464.29498668	    141.89752474	   -179.99999979	   1785.23559426	     59.73293058	     24.22416376	     17.55401981	     -8.75536993	    -45.00000000	    -39.73415535	     45.00000000	    -45.00000000	   5502.37927502	  -3325.98892242	    131.90499179	   -113.50274083	   1429.01095736	     38.78060723	     15.11314200	    -18.79528102
      3.54000000	     29.45826274	     26.14090459	     38.68656272	      2.69314666	    841.98036543	    -47.00044542	     -1.28257325	     40.14997092	     43.09226630	     45.00000000	     19.62177400	   1672.93400058	   -464.53693783	    141.83136812	   -179.99999979	   1785.28264430	     59.71047965	     24.09455137	     17.60725562	     -8.81705330	    -45.00000000	    -39.63296581	     45.00000000	    -45.00000000	   5502.21975285	  -3326.03948975	    131.82999183	   -113.16328045	   1428.99889691	     38.77867680	     15.14502552	    -18.57958160
      3.55000000	     29.45956519	     26.25404135	     38.87987942	      5.12305909	    840.61517567	    -46.82931754	     -1.20298071	     40.25523805	     43.26133142	     45.00000000	     19.43985484	   1672.74020952	   -464.84754708	    141.79560956	   -179.99999979	   1785.37347383	     59.68630581	     23.92465657	     17.60568469	     -9.05910224	    -45.00000000	    -39.54119064	     45.00000000	    -45.00000000	   5502.03185157	  -3326.08934135	    131.83757326	   -112.79943880	   1428.93776176	     38.79776375	     15.14543796	    -18.32757650
      3.56000000	     29.40693731	     26.42466612	     39.05442804	      7.56551010	    839.20350237	    -46.63801027	     -1.36872225	     40.30463192	     43.32566301	     45.00000000	     19.44739129	   1672.51598882	   -465.06694122	    141.76378493	   -179.99999979	   1785.47091308	     59.64891248	     23.74002356	     17.59544123	     -9.18317127	    -45.00000000	    -39.46369207	     45.00000000	    -45.00000000	   5501.84355480	  -3326.08944721	    131.77240851	   -112.43621430	   1428.89176099	     38.85557207	     15.14898640	    -18.09486794
      3.57000000	     29.40662762	     26.58248646	     39.25865184	     10.01539578	    837.74295165	    -46.43361274	     -1.30882757	     40.41587630	     43.47305284	     45.00000000	     19.23681890	   1672.35672506	   -465.32675767	    141.70017931	   -179.99999979	   1785.47184246	     59.64513381	     23.47587788	     17.56773291	     -9.47203870	    -45.00000000	    -39.36415361	     45.00000000	    -45.00000000	   5501.64869646	  -3326.16914997	    131.77797750	   -112.03959337	   1428.84918234	     38.92008563	     15.11358786	    -17.84850045
      3.58000000	     29.42238084	     26.68769390	     39.42255727	     12.46688015	    836.22366632	    -46.23157565	     -1.28707861	     40.49713127	     43.64415388	     45.00000000	     19.11434751	   1672.10704276	   -465.63534184	    141.66062178	   -179.99999979	   1785.55634724	     59.60685180	     23.28311105	     17.55758494	     -9.73138341	    -45.00000000	    -39.25672317	     45.00000000	    -45.00000000	   5501.44192186	  -3326.20940179	    131.76261021	   -111.73382763	   1428.74024395	     39.02376294	     15.09864872	    -17.61214713
      3.59000000	     29.38072713	     26.87288840	     39.64833075	     14.92625748	    834.64285125	    -46.03568961	     -1.48806641	     40.56022074	     43.62132734	     45.00000000	     18.95651822	   1671.97685781	   -465.94558778	    141.59324527	   -179.99999979	   1785.59505265	     59.58486510	     23.12215880	     17.59444999	     -9.73100951	    -45.00000000	    -39.14471103	     45.00000000	    -45.00000000	   5501.32857551	  -3326.34076343	    131.71713244	   -111.63309407	   1428.78174546	     39.12020974	     15.07293101	    -17.44447160
